<svg xmlns="http://www.w3.org/2000/svg" width="38" height="71.25" viewBox="0 0 38 71.25">
  <g id="Element" transform="translate(-372 -260)">
    <path id="Path_2498" data-name="Path 2498" d="M473.5,464h-8.312a1.188,1.188,0,0,0,0,2.375H473.5a1.188,1.188,0,0,0,0-2.375Z" transform="translate(-78.344 -173.719)" fill="#dc4bff"/>
    <path id="Path_2499" data-name="Path 2499" d="M405.25,277.813h-5.937V261.188A1.188,1.188,0,0,0,398.125,260h-14.25a1.187,1.187,0,0,0-1.187,1.188v16.625H376.75a4.755,4.755,0,0,0-4.75,4.75v40.375a4.758,4.758,0,0,0,3.563,4.6v1.434a2.279,2.279,0,0,0,2.279,2.279h0a2.279,2.279,0,0,0,2.279-2.279v-1.284H401.88v1.284a2.279,2.279,0,0,0,2.279,2.279h0a2.279,2.279,0,0,0,2.279-2.279v-1.434a4.759,4.759,0,0,0,3.563-4.6V282.563A4.755,4.755,0,0,0,405.25,277.813Zm-20.187-15.437h11.875v3.563H385.063Zm0,5.938h11.875v9.5H385.063Zm22.563,54.625a2.378,2.378,0,0,1-2.375,2.375h-28.5a2.378,2.378,0,0,1-2.375-2.375V291.752a18.991,18.991,0,0,0,33.25,0ZM391,299.188a16.644,16.644,0,0,1-16.625-16.625,2.378,2.378,0,0,1,2.375-2.375h28.5a2.378,2.378,0,0,1,2.375,2.375A16.644,16.644,0,0,1,391,299.188Z" fill="#dc4bff"/>
  </g>
</svg>
