<svg xmlns="http://www.w3.org/2000/svg" width="34.687" height="31.473" viewBox="0 0 34.687 31.473">
  <g id="Group_4369" data-name="Group 4369" transform="translate(-166.93 -203.989)">
    <path id="Path_2489" data-name="Path 2489" d="M444.036,791.836l-.457,3.969.471,2.016h2.006l.47-2.016-.456-3.969Z" transform="translate(-264.654 -562.359)" fill="#dc4bff"/>
    <path id="Path_2490" data-name="Path 2490" d="M169.418,725.929v.009a2.69,2.69,0,0,0-2.488,2.682v6.151h10.589l-.906-8.842Z" transform="translate(0 -499.31)" fill="#dc4bff"/>
    <path id="Path_2491" data-name="Path 2491" d="M435.491,726.105l.736,1.569h2.034l.736-1.569.074-.177h-3.655Z" transform="translate(-256.845 -499.309)" fill="#dc4bff"/>
    <path id="Path_2492" data-name="Path 2492" d="M481.667,206.615a1.471,1.471,0,0,1,1.365-1.147h12.155a1.469,1.469,0,0,1,1.365,1.147l.829,4.741h1.5l-.872-5a2.947,2.947,0,0,0-2.823-2.371H483.032a2.947,2.947,0,0,0-2.822,2.371l-.14.809h1.5Z" transform="translate(-299.563 0)" fill="#dc4bff"/>
    <path id="Path_2493" data-name="Path 2493" d="M282.926,305.1a1.509,1.509,0,0,0,1.274.84h12.645a1.5,1.5,0,0,0,1.271-.84l.81-1.883a.887.887,0,0,0-.488-1.178l-4.182-1.666a5.719,5.719,0,0,0-1.762-.339H288.55a5.719,5.719,0,0,0-1.762.339l-4.183,1.666a.887.887,0,0,0-.487,1.178Z" transform="translate(-110.123 -91.876)" fill="#dc4bff"/>
    <path id="Path_2494" data-name="Path 2494" d="M646.869,399.769H636.9l-.485,1.131a2.411,2.411,0,0,1-.982,1.082l.131.361c.054.149.1.3.146.451h3.992a.533.533,0,1,1,0,1.066h-3.75a8.09,8.09,0,0,1,.1,1.256c0,.116,0,.232-.007.346h3.66a.533.533,0,1,1,0,1.067h-3.776a8.078,8.078,0,0,1-1.2,3.026h12.135a2.267,2.267,0,0,0,2.268-2.268v-5.249A2.269,2.269,0,0,0,646.869,399.769Zm-2.535,7.028a2.135,2.135,0,1,1,2.135-2.137A2.135,2.135,0,0,1,644.335,406.8Z" transform="translate(-447.521 -187.291)" fill="#dc4bff"/>
    <path id="Path_2495" data-name="Path 2495" d="M312.619,469.294a7.152,7.152,0,1,0,13.876-2.438H313.047A7.146,7.146,0,0,0,312.619,469.294Z" transform="translate(-139.372 -251.47)" fill="#dc4bff"/>
    <path id="Path_2496" data-name="Path 2496" d="M552.09,725.938v-.009h-7.2l-.906,8.842h10.588V728.62A2.689,2.689,0,0,0,552.09,725.938Zm-1.071,6.125H546.6v-.916h4.422Z" transform="translate(-360.709 -499.31)" fill="#dc4bff"/>
    <path id="Path_2497" data-name="Path 2497" d="M819.252,647.306a1.957,1.957,0,1,0,3.913,0v-3.38h-3.913Z" transform="translate(-624.039 -420.862)" fill="#dc4bff"/>
  </g>
</svg>
