<svg xmlns="http://www.w3.org/2000/svg" width="106.181" height="70.788" viewBox="0 0 106.181 70.788">
  <g id="deal" transform="translate(0 -85.333)">
    <g id="Group_4379" data-name="Group 4379" transform="translate(0 85.333)">
      <path id="Path_2512" data-name="Path 2512" d="M105.237,90.157a2.2,2.2,0,0,0-2.024-.266L85.179,96.45a8.783,8.783,0,0,0-5.012,4.61,8.889,8.889,0,0,0-.432,1.246A81.751,81.751,0,0,1,65.165,96.64c-8.642-4.453-15.245-2.254-20.908,2.066-2.869.056-6.824.4-10.712.738-2.48.219-4.824.42-6.724.536A8.85,8.85,0,0,0,21,92.026L2.968,85.467A2.212,2.212,0,0,0,0,87.545v44.242A2.211,2.211,0,0,0,2.212,134H8.673a8.9,8.9,0,0,0,6.957-3.389c.88.669,1.923,1.453,3.017,2.274,2.582,1.942,5.407,4.061,6.647,5.1,8.237,6.9,18.14,14.342,20.112,15.638a16.236,16.236,0,0,0,7.684,2.5c.987,0,3.474,0,5.219-1.476a7.108,7.108,0,0,0,5.543-.123,8.293,8.293,0,0,0,4.1-4.1,8.611,8.611,0,0,0,5.513-.808,7.541,7.541,0,0,0,3.595-3.618,6.951,6.951,0,0,0,4.832-1.543,7.168,7.168,0,0,0,2.9-6.561l5.611-3.1a8.862,8.862,0,0,0,7.1,3.641h6.461a2.211,2.211,0,0,0,2.212-2.212V91.969A2.212,2.212,0,0,0,105.237,90.157ZM12.817,126.7a4.445,4.445,0,0,1-4.143,2.871H4.424V90.7L19.49,96.182a4.426,4.426,0,0,1,2.631,5.71Zm66.394,14.23c-.75.575-1.8.894-2.266.428-.024-.024-.061-.022-.085-.044-.042-.039-.063-.092-.109-.129-1.581-1.249-8.667-8.5-13.046-13.065a2.211,2.211,0,1,0-3.193,3.059c1.028,1.073,9.278,9.666,12.581,12.671a3.055,3.055,0,0,1-1.6,1.8c-1.417.711-2.895.592-3.448.078-.016-.015-.041-.015-.058-.029s-.039-.058-.068-.081c-2.653-2.119-9.308-9.192-10.814-10.829a2.212,2.212,0,1,0-3.258,2.994c.073.079,6.6,7.115,10.259,10.383a3.888,3.888,0,0,1-2.035,2.307,2.888,2.888,0,0,1-3.022-.45c-3.177-2.694-9.552-9.48-10.806-10.822a2.212,2.212,0,1,0-3.232,3.02c1.487,1.591,5.88,6.248,9.221,9.4a9.566,9.566,0,0,1-1.137.071,12.159,12.159,0,0,1-5.254-1.771c-1.551-1.02-11.29-8.287-19.7-15.329-1.272-1.067-4.176-3.251-6.833-5.247-1.424-1.069-2.736-2.055-3.7-2.8l8.283-22.09c2.15-.094,5.016-.342,8.05-.609,1.716-.151,3.433-.3,5.075-.426-2.523,2.59-6.273,7.228-5.779,11.575a6.376,6.376,0,0,0,3.135,4.768c3.614,2.262,10.3.365,13.528-3.6a15.379,15.379,0,0,0,5.02-1.592c2.592,2.437,6.068,5.3,9.719,8.311,6.356,5.236,13.56,11.173,15.465,14.5A2.666,2.666,0,0,1,79.21,140.934Zm3.795-7.114c-2.947-3.943-9.336-9.218-15.562-14.348-4.15-3.42-8.069-6.649-10.577-9.157a2.222,2.222,0,0,0-2.607-.387,12.785,12.785,0,0,1-5.813,1.961,2.213,2.213,0,0,0-1.65,1.022c-1.735,2.752-6.556,4.061-8.086,3.106a1.965,1.965,0,0,1-1.084-1.519c-.214-1.882,1.691-5.139,4.852-8.3C50.3,98.37,55.9,96.838,63.138,100.571a85.822,85.822,0,0,0,16.515,6.308,8.875,8.875,0,0,0,.264.991l8.589,22.906Zm18.752.18H97.508a4.445,4.445,0,0,1-4.143-2.871l-9.3-24.811a4.427,4.427,0,0,1,2.631-5.712l15.066-5.478V134Z" transform="translate(0 -85.333)" fill="#dc4bff"/>
    </g>
  </g>
</svg>
