<svg id="earth" xmlns="http://www.w3.org/2000/svg" width="36.898" height="36.898" viewBox="0 0 36.898 36.898">
  <g id="Group_4305" data-name="Group 4305">
    <path id="Path_2475" data-name="Path 2475" d="M35.226,10.484l.036.274-.411.085-.055.584h.492l.654-.063.338-.4-.359-.14-.2-.226-.3-.478-.141-.676-.555.113-.156.238v.269l.267.183Z" transform="translate(-8.339 -2.277)" fill="#dc4bff"/>
    <path id="Path_2476" data-name="Path 2476" d="M34.463,10.95l.03-.366-.326-.14-.455.105-.338.542v.351h.394Z" transform="translate(-8.049 -2.519)" fill="#dc4bff"/>
    <path id="Path_2477" data-name="Path 2477" d="M22.273,13.157l-.1.258h-.485v.25H21.8s.007.053.017.123l.3-.025.186-.115.049-.233.241-.02.095-.2-.221-.046Z" transform="translate(-5.23 -3.172)" fill="#dc4bff"/>
    <path id="Path_2478" data-name="Path 2478" d="M20.806,13.695l-.019.245.351-.03.036-.246-.211-.166Z" transform="translate(-5.013 -3.255)" fill="#dc4bff"/>
    <path id="Path_2479" data-name="Path 2479" d="M36.894,18.258c-.005-.54-.033-1.075-.083-1.6a18.337,18.337,0,0,0-1.221-5.023c-.047-.118-.09-.237-.14-.353a18.471,18.471,0,0,0-3.46-5.346c-.095-.1-.191-.2-.288-.3-.272-.283-.552-.559-.842-.824a18.412,18.412,0,0,0-24.9.078,18.668,18.668,0,0,0-2.11,2.3A18.44,18.44,0,1,0,34.876,26.83a18.274,18.274,0,0,0,1.506-4.063c.087-.362.162-.725.228-1.093a18.45,18.45,0,0,0,.288-3.225C36.9,18.385,36.895,18.322,36.894,18.258Zm-3.472-7.374.107-.12c.14.272.272.549.4.83l-.175-.007-.329.046ZM30.756,7.666l0-.824q.435.461.836.952l-.332.495L30.1,8.277l-.073-.242ZM8.5,5.618V5.587h.37L8.9,5.46h.6v.264l-.174.232H8.5V5.618Zm.59.823s.37-.063.4-.063,0,.369,0,.369L8.659,6.8,8.5,6.609ZM34.6,13.765h-1.35l-.823-.612-.866.084v.528h-.274l-.3-.211-1.5-.38V12.2l-1.9.148L27,12.667h-.754l-.37-.037-.916.508v.957l-1.872,1.351.156.577h.379l-.1.549-.267.1-.014,1.436,1.618,1.842h.7l.042-.112h1.266l.365-.338h.718l.394.395,1.07.111-.142,1.423,1.188,2.1-.625,1.2.042.563.492.491v1.354l.647.87V29.12h.559a16.924,16.924,0,0,1-28.711-17.3v-.528l.606-.735q.315-.6.676-1.161l.027.307-.7.854c-.218.411-.421.832-.606,1.263v.964l.7.338v1.339l.675,1.151L4.8,15.7l.071-.395-.647-1-.127-.971h.379l.16,1L5.568,15.7l-.241.441.595.91,1.477.366v-.239l.591.084-.056.422.464.085.717.2,1.013,1.154,1.294.1.127,1.056-.886.619-.042.942-.127.577,1.281,1.6.1.549s.464.126.521.126,1.041.746,1.041.746v2.9l.351.1-.239,1.337.591.788-.109,1.325.781,1.373,1,.876,1.008.018.1-.324L16.18,33.2l.042-.31.133-.379.028-.387-.5-.015-.253-.317.416-.4.056-.3-.464-.133.027-.281.662-.1,1.006-.483.338-.619,1.056-1.351-.24-1.056.324-.562.971.03.653-.518.211-2.038.725-.92.127-.591-.661-.212L20.4,21.54l-1.491-.015-1.182-.451-.056-.843-.395-.69-1.069-.016-.618-.97-.549-.268-.028.3-1,.059-.366-.509-1.042-.212-.858.992L10.4,18.684l-.1-1.522-.986-.168.4-.747-.113-.429-1.3.866-.815-.1-.291-.637.178-.656.449-.828,1.034-.524h2l-.005.609.718.334-.057-1.041.518-.521,1.044-.686.071-.483,1.041-1.084,1.107-.613-.1-.08.75-.706.275.073.126.158.285-.316.07-.031-.312-.044L16.068,9.4V9.1l.168-.137h.37l.169.074.146.3.179-.027V9.28l.052.017.519-.08.074-.253.3.074v.275l-.275.189h0l.04.3.94.29,0,.011.216-.018.014-.407-.745-.339-.042-.2.618-.211.027-.592-.647-.394-.042-1-.886.436h-.323l.085-.76-1.207-.285-.5.377v1.15l-.9.285-.36.75-.39.063V8.006l-.844-.117L12.4,7.615l-.17-.621,1.509-.883.738-.225.074.5.411-.021L15,6.111l.43-.061.008-.087-.185-.077-.042-.264.529-.045.319-.332.017-.024,0,0,.1-.1,1.112-.14.492.417-1.289.687,1.641.387.212-.549h.717l.253-.478-.507-.127v-.6l-1.59-.7-1.1.127L15.5,4.46l.042.788-.647-.1-.1-.436.62-.563-1.125-.056-.323.1-.14.379.422.071-.084.422-.717.042-.112.281-1.04.029a2.851,2.851,0,0,0-.071-.59l.816-.014.62-.606-.338-.169-.45.437-.747-.042-.45-.619h-.957l-1,.746h.915l.083.268-.238.221,1.013.028.155.366L10.509,5.4l-.055-.282-.717-.155-.38-.211L8.5,4.759a16.883,16.883,0,0,1,21.124.989l-.2.36-.781.306-.329.357.076.417.4.056.243.607.7-.28.115.812h-.209L29.066,8.3l-.633.106-.612.865-.876.137-.127.75.37.087-.107.482-.87-.175-.8.175-.169.444.138.932.468.219.785,0,.53-.048.162-.422.829-1.077.546.112.537-.486.1.379,1.322.892-.162.217-.6-.032.229.325.367.08.43-.179-.009-.518.19-.1-.153-.162-.882-.492-.232-.653h.733l.234.232.631.544.027.658.654.7.244-.955.453-.247.085.781.442.486.883-.015q.256.659.458,1.342ZM10.063,8.382l.443-.211.4.1-.138.538-.433.137Zm2.352,1.266V10H11.4l-.379-.105.095-.243.486-.2h.665v.2Zm.466.486v.338l-.253.163-.316.058v-.559ZM12.6,10V9.6l.348.317Zm.159.812v.329l-.242.243h-.538l.084-.369.254-.022.052-.127Zm-1.34-.675h.559l-.717,1-.3-.159.064-.422Zm2.29.559v.328h-.538l-.147-.212V10.5h.042Zm-.5-.451.153-.161.259.161-.207.171Zm21.665,4.376.053-.062c.022.1.046.191.067.288Z" fill="#dc4bff"/>
    <path id="Path_2480" data-name="Path 2480" d="M3.782,14.65v.528c.184-.431.388-.851.606-1.263Z" transform="translate(-0.912 -3.356)" fill="#dc4bff"/>
  </g>
</svg>
