<svg xmlns="http://www.w3.org/2000/svg" width="67.151" height="45.078" viewBox="0 0 67.151 45.078">
  <g id="card" transform="translate(0)">
    <path id="Path_2426" data-name="Path 2426" d="M61.347,0H5.8A5.81,5.81,0,0,0,0,5.8V39.274a5.81,5.81,0,0,0,5.8,5.8H61.347a5.811,5.811,0,0,0,5.8-5.8V5.8A5.811,5.811,0,0,0,61.347,0Zm3.81,39.274a3.814,3.814,0,0,1-3.81,3.81H5.8a3.814,3.814,0,0,1-3.809-3.81V5.8A3.814,3.814,0,0,1,5.8,1.994H61.347a3.814,3.814,0,0,1,3.81,3.81Zm0,0" fill="#dc4bff"/>
    <path id="Path_2427" data-name="Path 2427" d="M67.732,60.832H44.6a1,1,0,0,0-1,1v2.393a1,1,0,0,0,1.995,0v-1.4H66.735V87.161H45.593V68.212a1,1,0,1,0-1.995,0V88.158a1,1,0,0,0,1,1H67.732a1,1,0,0,0,1-1V61.83A1,1,0,0,0,67.732,60.832Zm0,0" transform="translate(-37.88 -52.854)" fill="#dc4bff"/>
    <path id="Path_2428" data-name="Path 2428" d="M290.617,78.465h-25a1,1,0,1,0,0,1.994h25a1,1,0,0,0,0-1.994Zm0,0" transform="translate(-229.915 -68.174)" fill="#dc4bff"/>
    <path id="Path_2429" data-name="Path 2429" d="M419.23,133.625h-5.585a1,1,0,0,0,0,1.994h5.585a1,1,0,0,0,0-1.994Zm0,0" transform="translate(-358.528 -116.1)" fill="#dc4bff"/>
    <path id="Path_2430" data-name="Path 2430" d="M265.619,135.619h15.424a1,1,0,1,0,0-1.994H265.619a1,1,0,1,0,0,1.994Zm0,0" transform="translate(-229.915 -116.1)" fill="#dc4bff"/>
    <path id="Path_2431" data-name="Path 2431" d="M290.617,188.785h-25a1,1,0,1,0,0,1.994h25a1,1,0,0,0,0-1.994Zm0,0" transform="translate(-229.915 -164.025)" fill="#dc4bff"/>
    <path id="Path_2432" data-name="Path 2432" d="M279.182,243.945H265.619a1,1,0,1,0,0,1.994h13.563a1,1,0,0,0,0-1.994Zm0,0" transform="translate(-229.915 -211.951)" fill="#dc4bff"/>
    <path id="Path_2433" data-name="Path 2433" d="M86.18,119.32a1,1,0,0,0,1.995,0,4.986,4.986,0,0,1,9.973,0,1,1,0,0,0,1.994,0,6.983,6.983,0,0,0-3.39-5.984,6.981,6.981,0,1,0-7.183,0A6.983,6.983,0,0,0,86.18,119.32Zm1.995-11.968a4.986,4.986,0,1,1,4.986,4.986A4.992,4.992,0,0,1,88.175,107.352Zm0,0" transform="translate(-74.877 -87.207)" fill="#dc4bff"/>
  </g>
</svg>
