<svg id="Group_4278" data-name="Group 4278" xmlns="http://www.w3.org/2000/svg" width="43.874" height="43.874" viewBox="0 0 43.874 43.874">
  <g id="Path_2435" data-name="Path 2435" transform="translate(0 0)" fill="#fff">
    <path d="M 21.93693923950195 42.37387847900391 C 19.17730903625488 42.37387847900391 16.50101852416992 41.833740234375 13.98241901397705 40.76845932006836 C 11.54897880554199 39.73920059204102 9.363219261169434 38.26540756225586 7.485839366912842 36.38803863525391 C 5.60845947265625 34.51065826416016 4.134679317474365 32.32489013671875 3.105419158935547 29.89145851135254 C 2.040139198303223 27.37284851074219 1.499999284744263 24.69656944274902 1.499999284744263 21.93693923950195 C 1.499999284744263 19.17730903625488 2.040139198303223 16.50101852416992 3.105419158935547 13.98241901397705 C 4.134679317474365 11.54897880554199 5.60845947265625 9.363219261169434 7.485839366912842 7.485839366912842 C 9.363219261169434 5.60845947265625 11.54897880554199 4.134679317474365 13.98241901397705 3.105419158935547 C 16.50101852416992 2.040139198303223 19.17730903625488 1.499999284744263 21.93693923950195 1.499999284744263 C 24.69656944274902 1.499999284744263 27.37284851074219 2.040139198303223 29.89145851135254 3.105419158935547 C 32.32489013671875 4.134679317474365 34.51065826416016 5.60845947265625 36.38803863525391 7.485839366912842 C 38.26540756225586 9.363219261169434 39.73920059204102 11.54897880554199 40.76845932006836 13.98241901397705 C 41.833740234375 16.50101852416992 42.37387847900391 19.17730903625488 42.37387847900391 21.93693923950195 C 42.37387847900391 24.69656944274902 41.833740234375 27.37284851074219 40.76845932006836 29.89145851135254 C 39.73920059204102 32.32489013671875 38.26540756225586 34.51065826416016 36.38803863525391 36.38803863525391 C 34.51065826416016 38.26540756225586 32.32489013671875 39.73920059204102 29.89145851135254 40.76845932006836 C 27.37284851074219 41.833740234375 24.69656944274902 42.37387847900391 21.93693923950195 42.37387847900391 Z" stroke="none"/>
    <path d="M 21.93693923950195 3 C 16.87869834899902 3 12.12321853637695 4.96978759765625 8.546497344970703 8.546497344970703 C 4.96978759765625 12.12321853637695 3 16.87869834899902 3 21.93693923950195 C 3 26.99518013000488 4.96978759765625 31.75065994262695 8.546497344970703 35.32737731933594 C 12.12321853637695 38.90409088134766 16.87869834899902 40.87387847900391 21.93693923950195 40.87387847900391 C 26.99518013000488 40.87387847900391 31.75065994262695 38.90409088134766 35.32737731933594 35.32737731933594 C 38.90409088134766 31.75065994262695 40.87387847900391 26.99518013000488 40.87387847900391 21.93693923950195 C 40.87387847900391 16.87869834899902 38.90409088134766 12.12321853637695 35.32737731933594 8.546497344970703 C 31.75065994262695 4.96978759765625 26.99518013000488 3 21.93693923950195 3 M 21.93693923950195 0 C 34.0523681640625 0 43.87387847900391 9.821498870849609 43.87387847900391 21.93693923950195 C 43.87387847900391 34.0523681640625 34.0523681640625 43.87387847900391 21.93693923950195 43.87387847900391 C 9.821498870849609 43.87387847900391 0 34.0523681640625 0 21.93693923950195 C 0 9.821498870849609 9.821498870849609 0 21.93693923950195 0 Z" stroke="none" fill="#dc4bff"/>
  </g>
  <path id="Path_2436" data-name="Path 2436" d="M2.806,5.126h3V-12.333h-3ZM2.175-17.711a2.042,2.042,0,0,0,2.108,2.075,2.06,2.06,0,0,0,2.174-2.075A2.063,2.063,0,0,0,4.283-19.8,2.046,2.046,0,0,0,2.175-17.711Z" transform="translate(17.538 29.341)" fill="#dc4bff"/>
</svg>
