<svg xmlns="http://www.w3.org/2000/svg" width="21.409" height="27.786" viewBox="0 0 21.409 27.786">
  <g id="lock-outline" transform="translate(-3.5 -0.5)">
    <path id="Path_2481" data-name="Path 2481" d="M21.857,9.929H20.582V7.378a6.378,6.378,0,1,0-12.755,0V9.929H6.551A2.559,2.559,0,0,0,4,12.48V25.235a2.559,2.559,0,0,0,2.551,2.551H21.857a2.559,2.559,0,0,0,2.551-2.551V12.48A2.559,2.559,0,0,0,21.857,9.929ZM14.2,3.424a3.974,3.974,0,0,1,3.954,3.954V9.929H10.378V7.378H10.25A3.974,3.974,0,0,1,14.2,3.424Zm7.653,21.812H6.551V12.48H21.857ZM14.2,21.408a2.551,2.551,0,1,0-2.551-2.551A2.559,2.559,0,0,0,14.2,21.408Z" fill="none" stroke="#dc4bff" stroke-width="1"/>
  </g>
</svg>
