<svg xmlns="http://www.w3.org/2000/svg" width="49.105" height="68.949" viewBox="0 0 49.105 68.949">
  <g id="passport" transform="translate(0 0)">
    <path id="Path_2421" data-name="Path 2421" d="M121.68,144.722a1.011,1.011,0,0,0-1.011,1.011v10.194a3.037,3.037,0,0,1-3.034,3.034H75.608V107.388a1.011,1.011,0,1,0-2.022,0v52.584a1.011,1.011,0,0,0,1.011,1.011h43.038a5.062,5.062,0,0,0,5.056-5.056V145.733A1.011,1.011,0,0,0,121.68,144.722Z" transform="translate(-73.586 -92.034)" fill="#dc4bff"/>
    <path id="Path_2422" data-name="Path 2422" d="M117.636,0H74.6a1.011,1.011,0,0,0-1.011,1.011v10.3a1.011,1.011,0,0,0,2.022,0V2.022h42.027a3.037,3.037,0,0,1,3.034,3.034v44.6a1.011,1.011,0,1,0,2.022,0V5.056A5.062,5.062,0,0,0,117.636,0Z" transform="translate(-73.586)" fill="#dc4bff"/>
    <path id="Path_2423" data-name="Path 2423" d="M168.258,90.4a1.011,1.011,0,0,0,2.007-.252,15.618,15.618,0,0,0-1.819-5.6q-.229-.417-.483-.819a15.659,15.659,0,0,0-11.4-7.231A15.746,15.746,0,0,0,140.6,85a1,1,0,0,0-.043.1,15.723,15.723,0,0,0,0,14.066,1,1,0,0,0,.043.1,15.753,15.753,0,0,0,28.087,0c.008-.017.015-.034.023-.051a15.658,15.658,0,0,0,1.5-4.683,1.011,1.011,0,1,0-2-.306,13.621,13.621,0,0,1-.946,3.3,32.063,32.063,0,0,0-5.108-1.353,32.769,32.769,0,0,0,0-8.08,32.071,32.071,0,0,0,5.113-1.354A13.624,13.624,0,0,1,168.258,90.4ZM154.64,105.855c-1.365,0-2.77-1.358-3.854-3.726a19.633,19.633,0,0,1-1.339-4.274,41.384,41.384,0,0,1,10.386,0,19.631,19.631,0,0,1-1.339,4.274C157.41,104.5,156.005,105.855,154.64,105.855Zm-5.693-2.884a13.154,13.154,0,0,0,1.21,2.131,13.8,13.8,0,0,1-7.2-5.771,30.32,30.32,0,0,1,4.487-1.166A21.747,21.747,0,0,0,148.947,102.971Zm-6.927-5.449a13.716,13.716,0,0,1,0-10.785,32.06,32.06,0,0,0,5.108,1.353,32.773,32.773,0,0,0,0,8.08A32.089,32.089,0,0,0,142.02,97.522Zm.942-12.594a13.8,13.8,0,0,1,7.2-5.771,13.167,13.167,0,0,0-1.21,2.131,21.743,21.743,0,0,0-1.5,4.806A30.307,30.307,0,0,1,142.962,84.928Zm7.824-2.8c1.085-2.368,2.49-3.726,3.854-3.726s2.77,1.358,3.854,3.726a19.63,19.63,0,0,1,1.339,4.274,41.385,41.385,0,0,1-10.386,0A19.631,19.631,0,0,1,150.786,82.131Zm15.537,17.2a13.7,13.7,0,0,1-7.2,5.765,13.163,13.163,0,0,0,1.207-2.127,21.744,21.744,0,0,0,1.5-4.806A30.283,30.283,0,0,1,166.323,99.333Zm-5.943-7.2a30.6,30.6,0,0,1-.225,3.727,43.419,43.419,0,0,0-11.029,0,30.952,30.952,0,0,1,0-7.454,43.42,43.42,0,0,0,11.029,0A30.6,30.6,0,0,1,160.38,92.13Zm1.452-6.036a21.752,21.752,0,0,0-1.5-4.806,13.156,13.156,0,0,0-1.207-2.127,13.8,13.8,0,0,1,7.2,5.765A30.336,30.336,0,0,1,161.832,86.094Z" transform="translate(-130.088 -66.084)" fill="#dc4bff"/>
    <path id="Path_2424" data-name="Path 2424" d="M139.9,355.993h29.472a1.011,1.011,0,1,0,0-2.022H139.9a1.011,1.011,0,1,0,0,2.022Z" transform="translate(-130.088 -306.245)" fill="#dc4bff"/>
    <path id="Path_2425" data-name="Path 2425" d="M169.368,396.683a1.011,1.011,0,0,0,0,2.022H190.9a1.011,1.011,0,0,0,0-2.022Z" transform="translate(-155.579 -343.198)" fill="#dc4bff"/>
  </g>
</svg>
