<svg xmlns="http://www.w3.org/2000/svg" width="95.159" height="95.159" viewBox="0 0 95.159 95.159">
  <g id="phone-in-talk" transform="translate(2 2)">
    <path id="Path_2409" data-name="Path 2409" d="M89.094,66.3a57.354,57.354,0,0,1-18.232-3.039A6.237,6.237,0,0,0,65.8,64.279L54.657,75.42C40.476,68.33,28.828,56.176,21.232,42L32.373,30.854c1.519-1.519,2.026-3.545,1.013-5.064A68.109,68.109,0,0,1,30.854,8.064,4.785,4.785,0,0,0,25.79,3H8.064A4.785,4.785,0,0,0,3,8.064,86.022,86.022,0,0,0,89.094,94.159a4.785,4.785,0,0,0,5.064-5.064V71.369A4.785,4.785,0,0,0,89.094,66.3Z" transform="translate(-3 -3)" fill="none" stroke="#dc4bff" stroke-width="4"/>
  </g>
</svg>
