<svg xmlns="http://www.w3.org/2000/svg" width="60" height="80.001" viewBox="0 0 60 80.001">
  <g id="ssl" transform="translate(-64.003 0.001)">
    <g id="Group_4331" data-name="Group 4331" transform="translate(64.003 -0.001)">
      <path id="Path_2482" data-name="Path 2482" d="M122.891,10.094,94.558.095a1.664,1.664,0,0,0-1.11,0l-28.333,10A1.669,1.669,0,0,0,64,11.667v20c0,25.882,3.838,35.342,29.25,48.154a1.661,1.661,0,0,0,1.5,0C120.165,67.008,124,57.549,124,31.667v-20A1.669,1.669,0,0,0,122.891,10.094ZM80.669,36.667a5,5,0,0,1,0,10H77.336a1.667,1.667,0,1,1,0-3.333h3.333a1.667,1.667,0,1,0,0-3.333,5,5,0,1,1,0-10H84a1.667,1.667,0,0,1,0,3.333H80.669a1.667,1.667,0,0,0,0,3.333Zm13.333,0a5,5,0,0,1,0,10H90.67a1.667,1.667,0,0,1,0-3.333H94A1.667,1.667,0,0,0,94,40a5,5,0,1,1,0-10h3.333a1.667,1.667,0,0,1,0,3.333H94a1.667,1.667,0,1,0,0,3.333Zm16.666,10H104A1.666,1.666,0,0,1,102.336,45V31.667a1.667,1.667,0,0,1,3.333,0V43.333h5a1.667,1.667,0,1,1,0,3.333Z" transform="translate(-64.003 0.001)" fill="#dc4bff"/>
    </g>
  </g>
</svg>
