<svg xmlns="http://www.w3.org/2000/svg" width="32.954" height="33.354" viewBox="0 0 32.954 33.354">
  <g id="Group_4415" data-name="Group 4415" transform="translate(-722 -530)">
    <g id="insurance-svgrepo-com" transform="translate(719.074 530)">
      <path id="Path_2517" data-name="Path 2517" d="M34.637,5.808a15.678,15.678,0,0,1-2.55.21A16.546,16.546,0,0,1,20.142.767L19.4,0l-.739.767A16.546,16.546,0,0,1,6.718,6.018a15.677,15.677,0,0,1-2.55-.21L2.926,5.6l.049,1.259A36.439,36.439,0,0,0,5.818,20.117a26.132,26.132,0,0,0,5.471,8.078,20.635,20.635,0,0,0,7.82,5.071l.294.088.294-.088a20.635,20.635,0,0,0,7.82-5.071,26.134,26.134,0,0,0,5.471-8.078A36.441,36.441,0,0,0,35.83,6.862L35.88,5.6Zm-8.487,20.85A19.765,19.765,0,0,1,19.4,31.2a19.56,19.56,0,0,1-6.664-4.457C9.577,23.6,5.754,17.824,5.092,8c.542.05,1.086.076,1.627.076A17.879,17.879,0,0,0,14.029,6.5,19.325,19.325,0,0,0,19.4,2.922,19.322,19.322,0,0,0,24.776,6.5a17.876,17.876,0,0,0,7.311,1.57c.541,0,1.084-.025,1.626-.076C33.187,15.767,30.584,22.2,26.149,26.658Z" fill="#fff"/>
    </g>
    <path id="airplane-svgrepo-com" d="M10.518,14.794,7.4,13.2,4.276,14.794V12.841L5.83,11.174V9.221L0,10.97V9.052L5.83,4.913V1.822A1.711,1.711,0,0,1,7.4,0,1.711,1.711,0,0,1,8.964,1.822V4.913l5.83,4.139V10.97L8.964,9.221v1.953l1.554,1.668v1.953ZM7.4,12.5l2.491,1.271v-.69L8.334,11.416V8.383l5.83,1.749V9.37L8.334,5.231V1.822A1.1,1.1,0,0,0,7.4.621a1.1,1.1,0,0,0-.937,1.2v3.41L.63,9.37v.761L6.46,8.383v3.033L4.906,13.083v.69Z" transform="translate(738.82 536) rotate(47)" fill="#fff"/>
  </g>
</svg>
