<svg xmlns="http://www.w3.org/2000/svg" width="99.813" height="100.461" viewBox="0 0 99.813 100.461">
  <g id="Group_4231" data-name="Group 4231" transform="translate(-207.216 -340.173)">
    <path id="Path_2399" data-name="Path 2399" d="M225.378,347.478s3.664,8.467,3.986,9.237a2.883,2.883,0,0,1-.2,2.768c-.638,1.091-2.631,3.216-2.947,3.722s-.838.9.069,2.246a31.9,31.9,0,0,0,15.854,13.555,1.92,1.92,0,0,0,2.056-.39c.9-.9,3.269-3.986,3.6-4.365a2.164,2.164,0,0,1,2.694-.77c1.476.638,9.311,4.366,9.311,4.366a1.909,1.909,0,0,1,1.018,2.051c-.053,1.677-.053,5.146-3.522,7.329s-6.548,3.2-10.086,2.5a43.148,43.148,0,0,1-20.926-11.051s-7.84-7.381-11.051-15.084-.322-13.107,2.5-15.8c0,0,1.866-1.735,3.279-1.677s2.831-.058,3.406.269C224.993,346.7,225.125,347.152,225.378,347.478Z" transform="translate(21.442 21.121)" fill="#dc4bff"/>
    <path id="Path_2400" data-name="Path 2400" d="M208.8,439.075l8.6-25.344a47.723,47.723,0,1,1,17.567,16.951Zm27.121-16.8,1.5.923a40.114,40.114,0,1,0-12.569-12.1l1.049,1.576-4.893,14.393Z" transform="translate(0 0)" fill="none" stroke="#dc4bff" stroke-width="2"/>
  </g>
</svg>
